<?xml version="1.0" standalone="no"?>
<svg viewBox="0 0 200 200" xmlns="http://www.w3.org/2000/svg">
  <path fill="#736CED" d="M31.1,-43.2C38.5,-37.5,41.3,-25.9,45.1,-14.6C48.8,-3.3,53.6,7.8,52.6,19C51.6,30.2,45,41.6,35.3,51.9C25.6,62.2,12.8,71.6,-0.7,72.6C-14.3,73.7,-28.6,66.4,-41.7,57.1C-54.8,47.9,-66.7,36.7,-74.2,22.1C-81.7,7.5,-84.8,-10.5,-75.8,-20.4C-66.8,-30.3,-45.7,-32.1,-31,-35.4C-16.4,-38.7,-8.2,-43.6,1.8,-46.2C11.9,-48.7,23.8,-48.9,31.1,-43.2Z" transform="translate(100 100)" />
</svg>
